<svg xmlns="http://www.w3.org/2000/svg" width="223.6572" height="271.8508" viewBox="0 0 223.6572 271.8508"><g id="Layer_2" data-name="Layer 2"><g id="Layer_1-2" data-name="Layer 1"><g id="Path_114-24" data-name="Path 114-24"><path d="M31.9927,31.2925A113.434,113.434,0,0,1,192.3649,191.6647l-80.1861,80.1861L31.9927,191.6647A116.4851,116.4851,0,0,1,31.9927,31.2925Z" fill="#71cdf2" fill-rule="evenodd"/></g><path d="M172.74,66.6013a4.1663,4.1663,0,0,0-4.19,0,33.3762,33.3762,0,0,1-16.4009,4.19,31.27,31.27,0,0,1-22.5063-8.8588A36.1057,36.1057,0,0,0,103.6173,51.637a37.4947,37.4947,0,0,0-21.86,6.8V56.4256a7.1829,7.1829,0,1,0-14.3657,0V185.717a7.1829,7.1829,0,1,0,14.3657,0V123.4656a4.1906,4.1906,0,0,0,2.1788-.8619,32.4666,32.4666,0,0,1,19.6811-6.321,31.3172,31.3172,0,0,1,22.5541,8.8589,36.0818,36.0818,0,0,0,25.978,10.2954,37.4231,37.4231,0,0,0,20.9261-6.1054,4.7887,4.7887,0,0,0,2.0591-4.07v-54.47A4.7886,4.7886,0,0,0,172.74,66.6013Z"/></g></g></svg>