<svg xmlns="http://www.w3.org/2000/svg" width="223.6572" height="271.8508" viewBox="0 0 223.6572 271.8508"><g id="Layer_2" data-name="Layer 2"><g id="Layer_1-2" data-name="Layer 1"><g id="Path_114-24" data-name="Path 114-24"><path d="M31.9927,31.2925A113.434,113.434,0,0,1,192.3649,191.6647l-80.1861,80.1861L31.9927,191.6647A116.4851,116.4851,0,0,1,31.9927,31.2925Z" fill="#71cdf2" fill-rule="evenodd"/></g><g id="G" style="isolation:isolate"><g style="isolation:isolate"><path d="M145.5367,165.2086a33.5111,33.5111,0,0,1-17.21,29.6494,36.4642,36.4642,0,0,1-18.3062,4.6152q-22.3761,0-36.455-11.8906L84.83,168.8072a63.8261,63.8261,0,0,0,12.9858,8.0576,27.6286,27.6286,0,0,0,10.9527,2.4248,14.7983,14.7983,0,0,0,9.3877-2.8164,9.3786,9.3786,0,0,0,3.5981-7.8232q0-4.5351-4.5371-7.1973A49.4962,49.4962,0,0,0,104.7,156.7594a56.926,56.926,0,0,1-20.7309-9.4659,20.8187,20.8187,0,0,1-8.6836-17.6015,23.2148,23.2148,0,0,1,3.6767-13.3779,22.4243,22.4243,0,0,1,9.7788-8.0577Q78.1,100.5924,78.1022,86.6646a33.6137,33.6137,0,0,1,3.52-15.0976A27.7874,27.7874,0,0,1,92.8878,59.91q7.7447-4.5352,19.792-4.5372a47.68,47.68,0,0,1,32.231,12.2041l-9.857,16.7413a40.7743,40.7743,0,0,0-10.4829-6.962,29.7143,29.7143,0,0,0-9.5439-2.2695q-6.8869,0-10.0137,2.2695a7.0828,7.0828,0,0,0-3.1289,6.0235q0,4.5395,4.6938,7.1191a62.5069,62.5069,0,0,0,13.4556,4.9278,87.2831,87.2831,0,0,1,14.16,5.0068,26.9409,26.9409,0,0,1,10.17,8.293q4.1433,5.4784,4.146,13.9248a25.9019,25.9019,0,0,1-3.4419,13.0644,25.0966,25.0966,0,0,1-10.0137,9.6221Q145.534,152.2252,145.5367,165.2086ZM101.65,132.4293a24.8436,24.8436,0,0,0,9.6226,4.7724,20.7441,20.7441,0,0,0,10.4824-3.2851q4.5366-2.9707,4.5376-7.5108,0-3.7543-4.9287-6.8056a21.1536,21.1536,0,0,0-9.7788-3.3643q-6.1018-.4687-10.0913,2.0342-3.99,2.5048-3.99,6.2588Q97.5035,129.0685,101.65,132.4293Z"/></g></g></g></g></svg>