<svg xmlns="http://www.w3.org/2000/svg" viewBox="0 0 220.21 267.43"><defs><style>.cls-1{fill:#999;}</style></defs><g id="Layer_2" data-name="Layer 2"><g id="Layer_1-2" data-name="Layer 1"><g id="Path_114-24" data-name="Path 114-24"><path class="cls-1" d="M110.41,267.43l-79-79A114.34,114.34,0,0,1,31.43,31l.23-.24A111.57,111.57,0,0,1,189.39,188.45l-.11.12ZM41,179.27l69.44,69.45,69.45-69.45a98.33,98.33,0,0,0-139-139.08A101.13,101.13,0,0,0,41,179.27Z"/></g><path d="M161.36,54.19H142.21a2.39,2.39,0,0,0-2.39,2.39V59H56a2.39,2.39,0,0,0-2.14,1.32L44.3,79.45a2.4,2.4,0,0,0,2.15,3.47H68v19.15H56a2.39,2.39,0,0,0-2.39,2.39v19.15A2.39,2.39,0,0,0,56,126H84.75a2.4,2.4,0,0,0,2.4-2.4V104.46a2.4,2.4,0,0,0-2.4-2.39h-12V82.92h38.31v71.82H94.33a2.39,2.39,0,0,0-2.4,2.39v14.36a2.39,2.39,0,0,0,2.4,2.4H147a2.39,2.39,0,0,0,2.4-2.4V157.13a2.39,2.39,0,0,0-2.4-2.39H130.24V82.92h9.57v2.39a2.39,2.39,0,0,0,2.4,2.39h19.15a2.39,2.39,0,0,0,2.39-2.39V56.58a2.39,2.39,0,0,0-2.39-2.39Z"/></g></g></svg>