<svg xmlns="http://www.w3.org/2000/svg" width="220.2077" height="267.4306" viewBox="0 0 220.2077 267.4306"><g id="Layer_2" data-name="Layer 2"><g id="Layer_1-2" data-name="Layer 1"><g id="Path_114-24" data-name="Path 114-24"><path d="M110.4132,267.4306,31.4276,188.4423a114.3551,114.3551,0,0,1,0-157.4817l.2361-.2366a111.5628,111.5628,0,0,1,157.727,157.7265l-.1131.1158ZM40.9664,179.2723l69.4468,69.4463,69.451-69.4509A98.3314,98.3314,0,0,0,40.9094,40.1908,101.1305,101.1305,0,0,0,40.9664,179.2723Z" fill="#999"/></g><path d="M161.3613,54.1875H142.2091a2.3933,2.3933,0,0,0-2.394,2.394v2.3941H56.0235a2.3991,2.3991,0,0,0-2.1426,1.3227L44.3048,79.4505a2.3981,2.3981,0,0,0,2.1426,3.4653H67.9928V102.068h-11.97a2.3933,2.3933,0,0,0-2.394,2.394v19.1522a2.3933,2.3933,0,0,0,2.394,2.394H84.751a2.3933,2.3933,0,0,0,2.394-2.394V104.462a2.3933,2.3933,0,0,0-2.394-2.394h-11.97V82.9158h38.3044v71.8207H94.3264a2.3935,2.3935,0,0,0-2.3941,2.3941v14.3641a2.3934,2.3934,0,0,0,2.3941,2.394h52.6685a2.3933,2.3933,0,0,0,2.394-2.394V157.1306a2.3934,2.3934,0,0,0-2.394-2.3941H130.236V82.9158h9.5761V85.31a2.3933,2.3933,0,0,0,2.394,2.394h19.1522a2.3933,2.3933,0,0,0,2.394-2.394V56.5815a2.3933,2.3933,0,0,0-2.394-2.394Z"/></g></g></svg>