<svg xmlns="http://www.w3.org/2000/svg" width="219.5561" height="266.8659" viewBox="0 0 219.5561 266.8659"><g id="Layer_2" data-name="Layer 2"><g id="Layer_1-2" data-name="Layer 1"><path id="Path_114-24" data-name="Path 114-24" d="M31.4061,30.7187A111.354,111.354,0,0,1,188.8376,188.15l-78.7157,78.7157L31.4061,188.15A114.349,114.349,0,0,1,31.4061,30.7187Z" fill-rule="evenodd"/><path d="M164.1805,50.5315H143.859a2.54,2.54,0,0,0-2.54,2.54v2.54H52.4118a2.5457,2.5457,0,0,0-2.2734,1.4034L39.9777,77.3368a2.5445,2.5445,0,0,0,2.2734,3.6768H65.1119v20.3215H52.411a2.54,2.54,0,0,0-2.54,2.54v20.3215a2.54,2.54,0,0,0,2.54,2.54H82.8932a2.5394,2.5394,0,0,0,2.54-2.54V103.8752a2.5394,2.5394,0,0,0-2.54-2.54H70.1923V81.0136h40.6428V157.219H93.0531a2.5394,2.5394,0,0,0-2.54,2.54V175a2.5394,2.5394,0,0,0,2.54,2.54H148.937a2.54,2.54,0,0,0,2.54-2.54V159.7591a2.54,2.54,0,0,0-2.54-2.54H131.1549V81.0136h10.1607v2.54a2.54,2.54,0,0,0,2.54,2.54h20.3214a2.5394,2.5394,0,0,0,2.54-2.54V53.0717a2.5394,2.5394,0,0,0-2.54-2.54Z" fill="#fff"/></g></g></svg>