<svg xmlns="http://www.w3.org/2000/svg" xmlns:xlink="http://www.w3.org/1999/xlink" viewBox="0 0 219.56 266.87"><defs><style>.cls-1{fill-rule:evenodd;fill:url(#linear-gradient);}.cls-2{fill:#fff;}</style><linearGradient id="linear-gradient" y1="133.43" x2="219.56" y2="133.43" gradientUnits="userSpaceOnUse"><stop offset="0.5" stop-color="#4c2002"/><stop offset="1" stop-color="#4c2105"/></linearGradient></defs><g id="Layer_2" data-name="Layer 2"><g id="Layer_1-2" data-name="Layer 1"><path id="Path_114-24" data-name="Path 114-24" class="cls-1" d="M31.41,30.72A111.35,111.35,0,0,1,188.84,188.15l-78.72,78.72L31.41,188.15A114.34,114.34,0,0,1,31.41,30.72Z"/><path class="cls-2" d="M164.18,50.53H143.86a2.54,2.54,0,0,0-2.54,2.54v2.54H52.41A2.55,2.55,0,0,0,50.14,57L40,77.34A2.53,2.53,0,0,0,42.25,81H65.11v20.33H52.41a2.54,2.54,0,0,0-2.54,2.54V124.2a2.54,2.54,0,0,0,2.54,2.54H82.89a2.54,2.54,0,0,0,2.54-2.54V103.88a2.53,2.53,0,0,0-2.54-2.54H70.19V81h40.65v76.21H93.05a2.54,2.54,0,0,0-2.54,2.54V175a2.54,2.54,0,0,0,2.54,2.54h55.89a2.54,2.54,0,0,0,2.54-2.54V159.76a2.54,2.54,0,0,0-2.54-2.54H131.15V81h10.17v2.54a2.53,2.53,0,0,0,2.54,2.54h20.32a2.54,2.54,0,0,0,2.54-2.54V53.07a2.54,2.54,0,0,0-2.54-2.54Z"/></g></g></svg>