<svg xmlns="http://www.w3.org/2000/svg" viewBox="0 0 261.54 317.64"><defs><style>.cls-1{fill:#fff;}</style></defs><g id="Layer_2" data-name="Layer 2"><g id="Screen_Shot_2020-12-17_at_20.31.02_Image" data-name="Screen Shot 2020-12-17 at 20.31.02 Image"><path d="M261.54,126.91v12a20.44,20.44,0,0,0-.82,3.28c-2.63,33.32-15.87,61.67-39.5,85.27Q178.05,270.53,135,313.76c-1.26,1.27-2.6,2.47-4.1,3.88-1.5-1.44-2.82-2.65-4.09-3.92C97.94,284.83,69,256.06,40.26,227,11,197.34-2.86,161.56.49,119.94,6.7,42.84,67-2.76,134.8.13A131.78,131.78,0,0,1,257.66,103C259.43,110.83,260.27,118.92,261.54,126.91Z"/><path class="cls-1" d="M167.36,75.13,130,112.45,92.72,75.13,65.57,102.29l37.31,37.32L65.57,176.92l27.15,27.16L130,166.76l37.32,37.32,27.15-27.16-37.32-37.31,37.32-37.32Z"/></g></g></svg>