<svg xmlns="http://www.w3.org/2000/svg" viewBox="0 0 260.9 318.07"><defs><style>.cls-1{fill:#3b1703;}.cls-2{fill:#fff;}</style></defs><g id="Layer_2" data-name="Layer 2"><g id="Screen_Shot_2020-12-17_at_20.31.02_Image" data-name="Screen Shot 2020-12-17 at 20.31.02 Image"><path class="cls-1" d="M131.4,318.07c-2-1.94-3.25-3-4.4-4.2Q83.2,269.95,39.41,226c-50.8-51-52.89-134.51-3.93-187.27C57.11,15.45,85,3.2,116.51.51c67.66-5.77,127.29,38,141.16,104.31,9.61,46-2.26,86.75-35,120.59-29,30-58.77,59.12-88.18,88.66A44.79,44.79,0,0,0,131.4,318.07Z"/><path class="cls-2" d="M167.24,73.25l-37.32,37.32L92.6,73.25,65.45,100.41l37.32,37.31L65.45,175,92.6,202.19l37.32-37.31,37.32,37.31L194.39,175l-37.31-37.32,37.31-37.31Z"/></g></g></svg>