<svg xmlns="http://www.w3.org/2000/svg" width="222.0798" height="269.7055" viewBox="0 0 222.0798 269.7055"><g id="Layer_2" data-name="Layer 2"><g id="Layer_1-2" data-name="Layer 1"><g id="Path_114-24" data-name="Path 114-24"><path d="M111.3518,269.7055l-79.6561-79.66a115.3288,115.3288,0,0,1,0-158.8236l.2361-.2366A112.5118,112.5118,0,0,1,191,190.0539l-.1126.1158ZM41.2335,180.8748l70.1183,70.1187,70.1219-70.1223A99.28,99.28,0,0,0,41.1775,40.4523,102.105,102.105,0,0,0,41.2335,180.8748Z" fill="#999"/></g><path d="M110.06,37.1625a76.9269,76.9269,0,1,1-76.9269,76.9269A77.0124,77.0124,0,0,1,110.06,37.1625Zm0,10.734a66.1929,66.1929,0,1,0,66.1929,66.1929A66.1141,66.1141,0,0,0,110.06,47.8965Zm0,10.734a5.3685,5.3685,0,0,1,5.367,5.367v50.0919a5.3686,5.3686,0,0,1-5.367,5.367H63.5461a5.367,5.367,0,1,1,0-10.734H104.693V63.9975A5.3685,5.3685,0,0,1,110.06,58.6305Z"/></g></g></svg>