<svg xmlns="http://www.w3.org/2000/svg" viewBox="0 0 222.08 269.71"><defs><style>.cls-1{fill:#999;}</style></defs><g id="Layer_2" data-name="Layer 2"><g id="Layer_1-2" data-name="Layer 1"><g id="Path_114-24" data-name="Path 114-24"><path class="cls-1" d="M111.35,269.71,31.7,190.05a115.32,115.32,0,0,1,0-158.83l.23-.23A112.51,112.51,0,0,1,191,190.05l-.11.12ZM41.23,180.87,111.35,251l70.12-70.12A99.28,99.28,0,0,0,41.18,40.45,102.1,102.1,0,0,0,41.23,180.87Z"/></g><path d="M110.06,37.16a76.93,76.93,0,1,1-76.93,76.93A77,77,0,0,1,110.06,37.16Zm0,10.74a66.19,66.19,0,1,0,66.19,66.19A66.11,66.11,0,0,0,110.06,47.9Zm0,10.73A5.37,5.37,0,0,1,115.43,64v50.09a5.38,5.38,0,0,1-5.37,5.37H63.55a5.37,5.37,0,0,1,0-10.74h41.14V64A5.37,5.37,0,0,1,110.06,58.63Z"/></g></g></svg>