<svg xmlns="http://www.w3.org/2000/svg" width="221.5417" height="269.2794" viewBox="0 0 221.5417 269.2794"><g id="Layer_2" data-name="Layer 2"><g id="Layer_1-2" data-name="Layer 1"><path id="Path_114-24" data-name="Path 114-24" d="M31.69,30.9965A112.3611,112.3611,0,0,1,190.5454,189.8518l-79.4276,79.4276L31.69,189.8518A115.3832,115.3832,0,0,1,31.69,30.9965Z" fill="#597235" fill-rule="evenodd"/><path d="M109.7471,32.4672A81.6232,81.6232,0,1,1,28.1239,114.09,81.714,81.714,0,0,1,109.7471,32.4672Zm0,11.3893A70.2339,70.2339,0,1,0,179.981,114.09,70.15,70.15,0,0,0,109.7471,43.8565Zm0,11.3893a5.6962,5.6962,0,0,1,5.6946,5.6946v53.15a5.6963,5.6963,0,0,1-5.6946,5.6947H60.3935a5.6947,5.6947,0,0,1,0-11.3893h43.6589V60.94A5.6962,5.6962,0,0,1,109.7471,55.2458Z" fill="#fff"/></g></g></svg>