<?xml version="1.0" standalone="no"?>
<!DOCTYPE svg PUBLIC "-//W3C//DTD SVG 20010904//EN"
 "http://www.w3.org/TR/2001/REC-SVG-20010904/DTD/svg10.dtd">
<svg version="1.0" xmlns="http://www.w3.org/2000/svg"
 width="1285.000000pt" height="1285.000000pt" viewBox="0 0 1285.000000 1285.000000"
 preserveAspectRatio="xMidYMid meet">
<metadata>
Created by potrace 1.11, written by Peter Selinger 2001-2013
</metadata>
<g transform="translate(0.000000,1285.000000) scale(0.100000,-0.100000)"
fill="#000000" stroke="none">
<path d="M8960 11881 c-472 -125 -447 -118 -453 -135 -6 -16 350 -1385 365
-1403 6 -7 20 -13 31 -13 38 0 862 221 876 235 12 11 11 24 -4 87 -30 125 -55
196 -69 201 -8 3 -143 -28 -301 -69 -158 -42 -288 -74 -290 -72 -1 2 -18 63
-37 135 -30 116 -33 133 -19 137 9 3 88 24 176 46 243 63 292 79 299 96 3 9
-5 59 -20 112 -39 147 -44 161 -63 167 -10 3 -120 -22 -245 -55 -126 -33 -232
-60 -236 -60 -7 0 -74 239 -68 245 2 2 127 36 278 75 151 40 283 76 293 81 23
13 22 28 -12 158 -32 122 -43 141 -75 140 -11 0 -203 -49 -426 -108z"/>
<path d="M7606 11525 c-153 -40 -283 -79 -287 -87 -11 -17 -27 49 178 -736
130 -496 181 -676 193 -682 12 -6 60 2 150 26 74 19 137 37 142 40 15 10 8 50
-53 283 -48 183 -58 235 -48 242 7 4 63 20 123 35 141 35 229 79 294 147 286
303 74 810 -336 806 -62 0 -130 -14 -356 -74z m422 -267 c86 -53 95 -213 15
-265 -24 -16 -215 -73 -244 -73 -12 0 -25 36 -54 150 -21 83 -36 152 -34 153
2 2 47 15 99 29 121 33 172 35 218 6z"/>
<path d="M6422 11229 c-304 -39 -557 -261 -639 -559 -24 -89 -24 -300 0 -390
71 -267 277 -477 543 -551 107 -31 275 -31 387 -1 216 59 402 213 493 409 47
101 65 173 71 289 22 407 -269 752 -677 803 -92 12 -88 12 -178 0z m219 -359
c113 -38 192 -105 247 -207 111 -209 28 -465 -186 -570 -73 -37 -80 -38 -182
-38 -100 0 -109 2 -175 34 -217 107 -301 351 -198 570 48 100 164 195 270 220
68 16 160 12 224 -9z"/>
<path d="M10445 11048 c-82 -22 -151 -42 -153 -43 -2 -2 43 -175 99 -385 56
-211 98 -385 93 -389 -5 -5 -2038 -551 -4519 -1215 -2480 -664 -4511 -1208
-4513 -1210 -2 -2 170 -651 382 -1442 212 -792 388 -1451 391 -1465 7 -30 21
-24 -150 -68 -60 -16 -184 -49 -275 -74 -91 -25 -182 -48 -202 -52 -35 -7 -37
-5 -43 21 -11 50 -14 54 -36 54 -21 0 -21 1 -5 19 15 17 15 23 1 77 -9 32 -31
118 -50 189 -19 72 -41 155 -50 185 -8 30 -24 87 -34 127 -10 39 -21 75 -25
81 -5 8 -101 -14 -291 -66 -35 -10 -46 -29 -106 -194 -22 -62 -47 -126 -55
-143 -7 -16 -45 -115 -84 -218 -38 -103 -83 -220 -99 -260 -16 -40 -62 -157
-101 -262 -40 -104 -80 -210 -90 -235 -21 -50 -119 -306 -217 -564 l-63 -168
25 -26 c26 -26 31 -68 12 -105 -10 -22 -70 -49 -90 -42 -10 4 -30 -39 -77
-162 -34 -92 -74 -197 -87 -233 -14 -36 -27 -72 -30 -80 -4 -15 98 -103 282
-245 28 -22 78 -63 111 -90 122 -105 141 -117 164 -105 26 14 26 30 0 30 -11
0 -20 4 -20 10 0 5 14 8 30 7 20 -1 29 -6 25 -15 -3 -7 4 -22 14 -33 15 -17
23 -19 39 -10 28 15 35 14 28 -5 -3 -8 -2 -24 4 -34 13 -23 46 -16 77 18 15
16 23 20 23 11 0 -8 13 -21 28 -30 27 -15 30 -15 51 7 20 21 20 23 5 32 -11 6
-15 16 -11 27 10 23 40 15 42 -12 2 -33 15 -41 29 -20 19 25 29 21 22 -9 -5
-18 -2 -32 9 -44 27 -30 30 -82 6 -109 -35 -40 -22 -131 19 -131 11 0 20 -4
20 -10 0 -5 -4 -10 -9 -10 -4 0 -6 -11 -3 -25 5 -30 190 -185 220 -185 10 0
25 -11 32 -25 8 -14 56 -60 108 -103 52 -42 138 -112 191 -155 53 -43 134
-109 181 -147 47 -38 130 -106 185 -150 55 -44 134 -108 175 -143 121 -101
153 -123 177 -119 13 2 23 11 23 20 0 13 2 14 8 4 7 -10 35 -6 133 19 68 17
127 34 132 38 8 8 -15 101 -103 426 -12 44 -29 105 -37 135 -8 30 -21 78 -29
105 -8 28 -17 64 -20 81 l-6 31 88 22 c49 13 116 31 149 41 33 10 88 26 123
36 35 9 67 24 71 32 6 10 24 14 62 13 29 0 76 6 104 14 82 24 292 81 425 115
69 17 146 38 171 46 25 8 54 16 65 19 22 4 136 34 249 65 44 12 112 30 150 40
39 11 97 26 130 35 33 9 103 28 155 41 52 14 128 34 170 46 41 11 125 33 185
49 110 29 167 45 195 56 19 7 23 8 90 21 30 6 79 19 109 30 50 17 54 21 56 52
2 19 -5 53 -16 75 -32 70 -48 124 -38 130 5 4 7 16 3 29 -6 26 52 96 81 96 15
0 17 6 12 36 -8 46 -8 46 -43 35 -16 -5 -74 -21 -129 -36 -172 -46 -166 -43
-160 -73 5 -25 5 -25 -4 -5 -6 13 -17 23 -25 23 -16 0 -230 -55 -351 -90 -38
-11 -91 -24 -116 -29 -55 -12 -100 -31 -94 -41 5 -8 -55 -20 -130 -25 -27 -1
-63 -8 -80 -15 -28 -11 -205 -59 -300 -81 -99 -24 -127 -41 -87 -53 9 -3 0 -3
-20 0 -22 3 -39 0 -43 -7 -6 -8 -9 -8 -15 1 -11 18 -60 1 -60 -21 0 -10 -4
-19 -10 -19 -5 0 -10 7 -10 15 0 8 -2 15 -3 15 -6 0 -142 -35 -232 -60 -44
-12 -102 -28 -130 -35 -27 -8 -86 -23 -130 -35 -44 -12 -102 -28 -130 -35 -27
-7 -104 -27 -170 -45 -66 -18 -167 -45 -225 -60 -58 -16 -166 -45 -240 -65
-74 -20 -162 -43 -195 -52 -33 -8 -61 -16 -63 -18 -2 -1 11 -56 28 -121 17
-66 42 -159 55 -209 13 -49 27 -99 31 -110 7 -17 2 -15 -32 9 -49 38 -168 136
-243 201 -32 28 -99 84 -150 125 -51 41 -123 101 -159 132 -37 32 -69 58 -72
58 -3 0 -16 -17 -29 -38 l-25 -37 -11 39 c-6 22 -16 41 -23 44 -6 2 -8 16 -5
36 5 30 1 36 -58 84 -35 28 -93 76 -129 106 -36 30 -70 55 -76 55 -7 1 -15
-11 -18 -25 -6 -22 -11 -25 -32 -20 -21 6 -25 3 -30 -24 -9 -44 -21 -46 -18
-2 2 20 4 39 5 42 1 3 1 9 0 14 -1 6 0 20 3 32 5 17 11 21 27 17 16 -4 20 -2
17 8 -3 8 -15 14 -27 13 -11 0 -21 5 -21 12 0 20 -186 184 -209 184 -5 0 -49
38 -97 84 l-87 85 21 53 c12 29 51 134 87 233 36 99 76 209 90 245 14 36 54
146 91 245 36 99 103 281 149 405 46 124 108 293 139 375 30 83 66 179 79 214
l24 64 16 -69 c9 -38 26 -100 37 -139 11 -38 29 -110 41 -160 12 -49 26 -95
31 -102 7 -9 20 -8 56 2 26 8 108 30 182 50 211 56 269 72 355 95 44 12 113
30 154 41 41 10 82 26 92 35 10 9 18 11 20 5 7 -17 118 21 125 43 6 17 8 17
15 4 8 -14 32 -10 199 33 105 27 207 55 228 63 20 8 64 20 97 27 33 7 65 15
70 18 6 3 19 7 30 8 11 2 42 9 70 16 46 11 50 14 52 45 4 41 -31 62 -72 44
-33 -15 -35 -15 -35 3 0 40 -64 -1 -125 -81 -32 -41 -46 -54 -58 -54 -7 1 -5
6 4 13 9 7 14 18 12 24 -3 7 4 16 14 20 23 9 81 70 88 94 7 20 49 24 72 7 19
-15 25 10 13 48 -17 51 1 88 55 114 40 19 75 19 75 -1 0 -15 15 -10 40 11 13
11 31 20 42 20 25 0 24 40 -2 47 -11 3 -20 11 -20 19 0 7 -10 22 -21 33 -30
28 -19 45 37 59 27 6 98 25 157 41 l109 29 -7 -25 c-17 -71 -18 -83 0 -89 10
-4 21 -1 26 7 7 11 9 11 9 1 0 -7 5 -10 11 -7 22 14 57 -5 64 -34 8 -36 26
-44 61 -26 24 12 30 12 50 -3 19 -14 23 -27 24 -65 0 -33 5 -49 15 -53 8 -4
15 -15 15 -25 0 -25 10 -24 137 10 60 16 151 41 203 55 52 14 113 34 135 46
21 11 55 20 75 20 20 0 60 7 90 15 30 8 79 20 108 27 30 6 56 17 59 25 3 7 11
13 19 13 8 0 14 6 14 13 0 7 5 5 10 -5 8 -14 16 -15 43 -7 17 6 64 18 102 29
248 65 303 80 325 85 14 4 34 10 45 15 11 4 52 15 90 25 166 40 191 47 207 62
11 9 26 13 40 10 13 -4 48 1 78 10 186 55 205 62 204 77 -2 18 42 23 48 6 3
-9 109 14 308 68 41 12 102 28 135 37 33 9 110 30 170 45 162 43 156 41 151
59 -3 9 -12 41 -20 71 -8 30 -27 100 -42 155 -42 155 -47 144 75 177 58 15
106 26 106 25 2 -2 55 -195 84 -302 18 -70 18 -70 52 -69 19 0 70 11 114 23
44 13 112 31 150 41 39 11 97 26 130 36 33 9 71 19 85 22 14 2 31 9 38 15 17
14 15 57 -3 57 -8 0 -15 6 -15 13 0 23 -55 39 -97 28 -21 -5 -47 -9 -58 -8
-11 1 -37 -2 -59 -7 -56 -11 -94 7 -102 49 -9 50 2 71 44 83 28 9 47 9 75 0
33 -10 37 -15 32 -35 -10 -42 4 -73 34 -73 21 0 29 7 39 33 12 29 14 31 26 15
14 -19 46 -24 46 -8 0 6 -9 19 -20 30 -14 14 -18 28 -14 45 4 17 2 25 -7 25
-18 0 -5 10 20 15 13 2 21 -1 21 -10 0 -18 30 -28 45 -15 20 16 3 62 -31 85
-18 12 -29 29 -29 42 1 27 12 38 46 47 34 7 40 -6 29 -64 -4 -24 -4 -55 1 -68
5 -13 7 -33 4 -45 -6 -27 7 -79 21 -84 6 -2 16 8 22 22 6 14 20 25 30 25 11 0
33 5 51 11 37 13 41 39 9 69 -12 11 -17 20 -11 20 7 0 18 -7 26 -15 8 -8 17
-12 19 -10 2 3 20 0 38 -5 42 -12 71 -5 63 16 -4 10 0 12 11 8 9 -3 16 -15 16
-26 0 -17 5 -20 30 -16 20 3 30 0 30 -9 0 -7 9 -13 20 -13 21 0 22 -2 24 -60
1 -34 2 -34 46 -35 43 0 45 1 47 32 2 24 -2 33 -17 38 -13 4 -20 15 -20 31 0
25 -43 74 -65 74 -13 0 -55 33 -55 44 0 15 42 4 47 -13 5 -21 34 -37 87 -46
28 -6 36 -12 36 -29 0 -12 9 -30 21 -39 13 -12 19 -27 17 -45 -4 -32 3 -32
107 -4 183 51 238 66 340 92 125 33 191 50 314 84 47 13 142 38 211 56 69 17
152 40 185 50 33 10 88 25 123 34 34 9 90 23 125 32 34 9 82 22 107 29 25 7
106 29 180 49 74 19 212 56 305 82 94 25 195 52 225 60 30 8 62 17 70 21 8 3
20 5 26 4 6 0 30 5 53 14 41 14 42 14 51 -11 6 -14 10 -33 10 -43 0 -10 6 -37
14 -62 7 -24 21 -71 30 -104 8 -33 31 -116 49 -185 19 -69 49 -181 67 -250 18
-69 43 -161 55 -205 13 -44 28 -99 34 -122 13 -49 27 -53 102 -29 24 7 71 21
104 29 33 9 95 26 137 38 88 25 84 15 48 134 -10 33 -28 96 -38 140 -11 44
-30 116 -42 160 -53 194 -63 232 -67 258 -3 16 -11 31 -19 34 -7 2 -11 10 -8
17 6 15 -10 85 -56 251 -81 296 -122 456 -118 460 6 5 650 176 652 173 2 -2
48 -173 104 -382 55 -208 103 -380 106 -383 6 -6 307 74 317 84 9 9 1029 2668
1028 2680 0 10 -2218 1807 -2233 1810 -6 1 -78 -16 -161 -39z m400 -1683 c314
-86 515 -364 519 -715 1 -135 -11 -194 -64 -305 -47 -98 -114 -182 -200 -252
-73 -59 -204 -130 -296 -161 -93 -32 -634 -175 -640 -170 -12 12 -385 1431
-377 1438 12 10 617 168 688 180 85 13 298 4 370 -15z m-1301 -252 c45 -158
377 -1416 373 -1419 -3 -3 -80 -25 -172 -50 -150 -40 -169 -44 -189 -31 -11 8
-196 148 -411 311 -214 162 -393 296 -397 296 -4 0 -1 -21 7 -47 48 -164 196
-735 192 -739 -10 -10 -379 -105 -385 -100 -3 4 -92 328 -197 721 -161 601
-189 716 -176 720 129 39 355 93 365 88 7 -5 187 -140 400 -301 213 -162 389
-292 390 -290 2 1 -43 173 -99 381 l-102 377 41 11 c202 56 324 88 338 88 9 1
19 -7 22 -16z m-1876 -563 c285 -80 489 -302 548 -594 22 -107 15 -273 -16
-371 -81 -260 -290 -457 -567 -537 -67 -20 -101 -23 -238 -23 -153 0 -164 2
-247 31 -255 91 -431 283 -500 544 -27 104 -27 277 1 381 77 297 330 523 649
584 103 20 273 13 370 -15z m-1090 -227 c-3 -10 -72 -244 -153 -520 l-148
-502 72 -272 c40 -149 71 -272 69 -274 -6 -6 -390 -106 -394 -103 -3 4 -144
521 -144 530 0 3 -178 175 -395 383 -218 207 -394 379 -393 380 6 6 426 115
441 115 8 0 112 -100 231 -222 138 -141 217 -216 220 -207 3 8 39 144 80 303
41 158 76 290 78 291 6 5 403 113 422 114 13 1 17 -4 14 -16z m-1574 -420 c17
-54 85 -317 83 -319 -2 -2 -754 -204 -760 -204 -6 0 50 -211 57 -218 3 -2 159
36 347 87 188 50 343 90 345 88 10 -9 82 -302 76 -308 -4 -3 -155 -45 -337
-93 -181 -49 -334 -91 -338 -96 -8 -7 39 -207 52 -222 3 -4 179 40 391 96 212
57 386 100 388 97 1 -4 22 -80 46 -169 l43 -162 -31 -8 c-408 -112 -1137 -304
-1140 -301 -8 9 -385 1433 -380 1438 4 4 1129 309 1146 310 4 1 9 -7 12 -16z
m-1564 -454 c36 -5 84 -19 107 -29 65 -29 136 -101 169 -173 24 -53 28 -75 29
-152 0 -105 -19 -153 -90 -233 -25 -27 -42 -52 -38 -56 3 -3 21 -6 39 -6 50 0
155 -37 198 -70 111 -85 167 -251 132 -390 -39 -153 -172 -269 -386 -338 -118
-38 -782 -213 -793 -209 -10 3 -399 1427 -393 1434 6 7 799 215 846 222 79 12
107 12 180 0z m6709 -551 c7 -20 16 -38 20 -40 5 -2 12 -17 15 -34 6 -28 4
-32 -19 -38 -14 -4 -30 -4 -35 -1 -12 7 -159 -33 -190 -52 -14 -9 -34 -26 -45
-38 -11 -12 -32 -25 -47 -28 -15 -4 -34 -14 -42 -23 -9 -8 -16 -11 -16 -6 0
12 -52 3 -65 -12 -6 -6 -19 -16 -30 -22 -21 -12 -22 -21 -10 -67 7 -27 6 -28
-21 -25 -23 2 -31 10 -40 37 -15 46 -7 78 22 85 20 5 22 10 14 30 -7 19 -5 28
10 41 18 16 19 16 26 -9 7 -28 28 -34 41 -12 4 7 32 19 61 26 32 7 52 17 52
26 0 8 8 14 18 14 10 0 28 7 40 16 12 8 48 22 79 30 32 8 63 21 69 29 6 8 20
15 32 15 28 0 37 43 16 75 -9 14 -13 32 -10 41 6 16 8 15 25 -2 10 -11 24 -36
30 -56z m-475 -65 c4 -10 4 -14 1 -11 -4 4 -18 3 -31 -2 -18 -7 -24 -6 -24 5
0 11 12 19 41 24 4 0 10 -7 13 -16z m726 -12 c0 -12 -39 -25 -48 -16 -7 7 17
25 36 25 6 0 12 -4 12 -9z m-144 -28 c-10 -10 -19 5 -10 18 6 11 8 11 12 0 2
-7 1 -15 -2 -18z m-857 -34 c-11 -20 -9 -47 5 -80 4 -10 2 -16 -7 -16 -8 0
-14 7 -13 16 1 9 -5 15 -11 14 -7 -2 -13 0 -14 5 0 4 -2 16 -4 26 -2 11 6 27
18 37 29 25 40 24 26 -2z m-108 -52 c-10 -9 -11 -8 -5 6 3 10 9 15 12 12 3 -3
0 -11 -7 -18z m283 1 c-3 -5 -12 -4 -20 3 -19 16 -18 18 6 12 11 -3 17 -9 14
-15z m564 -10 c-7 -32 -48 -52 -48 -23 0 8 7 15 15 15 8 0 15 5 15 10 0 6 5
10 10 10 6 0 9 -6 8 -12z m-508 -13 c0 -8 -7 -15 -15 -15 -16 0 -20 12 -8 23
11 12 23 8 23 -8z m-562 -34 c-15 -5 -21 7 -13 26 7 17 8 17 15 -2 4 -11 3
-22 -2 -24z m1146 25 c21 -7 34 -16 28 -20 -11 -6 -72 19 -72 29 0 7 -1 7 44
-9z m-694 -106 c0 -5 -7 -7 -15 -4 -8 4 -15 8 -15 10 0 2 7 4 15 4 8 0 15 -4
15 -10z m-874 -55 c6 -27 17 -51 23 -53 6 -2 11 -12 11 -22 0 -21 34 -45 50
-35 13 8 19 -7 11 -29 -7 -17 -8 -17 -23 -2 -9 9 -21 16 -27 16 -6 0 -11 7
-11 15 0 8 -4 15 -10 15 -5 0 -12 11 -16 25 -3 14 -10 25 -15 25 -8 0 -29 63
-29 88 0 32 24 2 36 -43z m851 -51 c-3 -3 -12 -4 -19 -1 -8 3 -5 6 6 6 11 1
17 -2 13 -5z m1263 -56 c10 -6 3 -7 -20 -2 -19 3 -39 10 -45 16 -12 11 42 0
65 -14z m-2180 -50 c0 -24 -17 -23 -25 2 -8 26 4 48 16 29 5 -8 9 -22 9 -31z
m-130 -19 c0 -5 5 -7 10 -4 6 3 10 0 10 -8 0 -8 -8 -18 -17 -21 -15 -6 -15 -8
-1 -22 14 -15 14 -18 -1 -33 -26 -26 -45 -30 -65 -15 -17 12 -17 14 -2 29 9 9
16 23 16 31 0 8 4 14 9 14 5 0 11 9 14 20 5 21 27 28 27 9z m374 -12 c19 -19
24 -51 11 -64 -18 -16 -102 13 -108 38 -11 41 63 61 97 26z m91 -27 c-3 -5
-12 -7 -20 -3 -21 7 -19 13 6 13 11 0 18 -4 14 -10z m-1335 -50 c0 -12 -3 -12
-16 2 -9 9 -13 21 -9 28 9 14 25 -5 25 -30z m941 -28 c-12 -2 -23 -13 -27 -28
-4 -14 -13 -24 -24 -24 -27 0 -31 27 -8 53 19 21 25 23 51 13 26 -10 27 -11 8
-14z m-891 -14 c0 -6 8 -17 18 -24 18 -14 6 -19 -14 -6 -15 10 -30 57 -15 48
6 -4 11 -12 11 -18z m614 -3 c-4 -8 -13 -15 -20 -15 -12 0 -12 3 -2 15 17 19
29 19 22 0z m-237 -67 c-3 -8 -6 -5 -6 6 -1 11 2 17 5 13 3 -3 4 -12 1 -19z
m-757 -17 c-1 -20 -45 -51 -74 -51 -29 0 -17 36 17 51 30 14 57 14 57 0z m174
3 c4 -10 1 -14 -6 -12 -15 5 -23 28 -10 28 5 0 13 -7 16 -16z m-298 -46 c-6
-4 -14 0 -17 10 -4 9 -1 20 5 24 6 4 14 0 17 -10 4 -9 1 -20 -5 -24z m-318
-31 c3 -21 -1 -27 -15 -27 -38 0 -59 44 -25 53 28 7 37 2 40 -26z m959 11 c-3
-8 -6 -5 -6 6 -1 11 2 17 5 13 3 -3 4 -12 1 -19z m-567 -244 c0 -2 -9 -4 -20
-4 -11 0 -20 4 -20 9 0 5 9 7 20 4 11 -3 20 -7 20 -9z m-1350 -16 c0 -16 -9
-29 -33 -47 -17 -13 -18 -12 -11 15 9 37 44 63 44 32z m57 -10 c-3 -8 -6 -5
-6 6 -1 11 2 17 5 13 3 -3 4 -12 1 -19z m233 -175 c-1 -16 -29 -45 -40 -41 -6
2 -4 12 7 25 18 23 33 30 33 16z m-943 -59 c-3 -3 -12 -4 -19 -1 -8 3 -5 6 6
6 11 1 17 -2 13 -5z m348 -54 c3 -5 -1 -10 -9 -10 -9 0 -16 5 -16 10 0 6 4 10
9 10 6 0 13 -4 16 -10z m85 -56 c0 -25 -33 -54 -62 -54 -21 0 -25 7 -29 45 -4
26 0 30 26 35 45 9 65 1 65 -26z m-186 0 c21 -8 2 -34 -25 -34 -21 0 -22 1
-13 24 7 17 14 19 38 10z m-1145 -80 c18 -9 30 -18 27 -21 -8 -8 -66 18 -66
28 0 12 2 12 39 -7z m792 -27 c-13 -13 -26 -3 -16 12 3 6 11 8 17 5 6 -4 6
-10 -1 -17z m-4011 -39 c0 -5 -7 -8 -15 -8 -17 0 -18 2 -9 25 5 13 8 14 15 3
5 -7 9 -16 9 -20z m3034 -3 c-7 -18 -28 -19 -53 -3 -19 12 -19 12 2 23 27 14
59 1 51 -20z m51 5 c-3 -5 -12 -10 -18 -10 -7 0 -6 4 3 10 19 12 23 12 15 0z
m269 -45 c-4 -8 -10 -12 -15 -9 -14 8 -10 24 6 24 9 0 12 -6 9 -15z m-3403
-61 c-9 -28 -9 -29 -10 -3 -1 14 2 29 6 32 11 12 13 2 4 -29z m3856 4 c-3 -8
-6 -5 -6 6 -1 11 2 17 5 13 3 -3 4 -12 1 -19z m-810 -45 c-3 -3 -11 -2 -17 2
-9 6 -9 10 1 16 14 8 27 -7 16 -18z m-2857 -29 c0 -13 -4 -24 -10 -24 -5 0
-10 9 -10 20 0 11 -5 20 -11 20 -5 0 -8 4 -4 10 10 17 35 -1 35 -26z m-170
-53 c-13 -25 -30 -27 -30 -4 0 22 34 55 38 37 2 -7 -2 -22 -8 -33z m3340 -16
c0 -8 -4 -15 -9 -15 -13 0 -22 16 -14 24 11 11 23 6 23 -9z m-3240 -50 c0 -8
-4 -15 -10 -15 -5 0 -10 7 -10 15 0 8 5 15 10 15 6 0 10 -7 10 -15z m105 4
c-18 -5 -33 -5 -39 1 -7 7 4 10 30 9 39 -1 39 -1 9 -10z m195 -79 c0 -20 -5
-25 -20 -22 -20 5 -23 9 -15 21 8 14 35 14 35 1z m-284 -41 c3 -5 1 -9 -5 -9
-17 0 -41 12 -41 20 0 10 38 1 46 -11z m1373 -68 c23 -15 1 -53 -32 -57 -24
-2 -27 1 -27 26 0 36 28 50 59 31z m-719 -91 c0 -5 -2 -10 -4 -10 -3 0 -8 5
-11 10 -3 6 -1 10 4 10 6 0 11 -4 11 -10z m-340 -19 c0 -5 -7 -12 -16 -15 -22
-9 -24 -8 -24 9 0 8 9 15 20 15 11 0 20 -4 20 -9z m940 -40 c-6 -12 -15 -21
-21 -21 -5 0 -2 11 8 24 21 28 29 27 13 -3z m-142 -73 c2 -9 -4 -23 -13 -32
-14 -14 -18 -14 -31 -2 -18 18 -18 21 2 41 19 18 38 15 42 -7z m99 -3 c-4 -8
-13 -15 -22 -15 -21 0 -19 28 3 32 22 5 26 2 19 -17z m-967 -235 c0 -5 -4 -10
-10 -10 -5 0 -10 5 -10 10 0 6 5 10 10 10 6 0 10 -4 10 -10z m-580 -168 c0 -5
-9 -17 -20 -27 -16 -14 -20 -15 -20 -4 0 16 19 39 32 39 4 0 8 -4 8 -8z m19
-163 c-14 -28 -26 -31 -32 -9 -7 25 22 58 34 39 4 -7 3 -21 -2 -30z m13 -207
c15 -12 17 -52 3 -69 -6 -8 -62 -12 -72 -6 -22 15 -25 57 -6 80 19 24 44 23
75 -5z m-108 -257 c12 -32 -13 -56 -40 -37 -14 9 -24 38 -17 46 12 12 51 6 57
-9z m3990 -880 c-25 -19 -40 -19 -24 0 7 8 20 15 28 15 13 0 12 -3 -4 -15z
m-4094 -35 c0 -5 -5 -10 -11 -10 -5 0 -7 5 -4 10 3 6 8 10 11 10 2 0 4 -4 4
-10z m4020 -5 c0 -9 7 -18 15 -21 8 -4 15 -12 15 -20 0 -8 4 -14 9 -14 16 0
19 -39 4 -51 -8 -7 -12 -20 -10 -30 7 -27 -31 -32 -39 -5 -4 11 -24 38 -45 59
-22 21 -39 42 -39 45 1 17 19 34 46 42 41 12 44 12 44 -5z m100 -2 c0 -5 -5
-15 -10 -23 -8 -12 -10 -11 -10 8 0 12 5 22 10 22 6 0 10 -3 10 -7z m-4005
-50 c-4 -10 -11 -37 -16 -61 -5 -24 -11 -47 -14 -52 -3 -5 0 -20 7 -32 6 -13
13 -41 14 -63 1 -22 -1 -30 -3 -17 -3 13 -16 27 -30 33 -27 10 -27 9 2 88 11
31 13 46 5 51 -7 5 -6 11 5 20 9 7 13 21 10 31 -5 13 -1 19 10 19 12 0 15 -5
10 -17z m3345 -8 c0 -8 -2 -15 -4 -15 -2 0 -6 7 -10 15 -3 8 -1 15 4 15 6 0
10 -7 10 -15z m-3410 -89 c0 -8 -7 -16 -15 -20 -13 -4 -14 -2 -5 14 13 23 20
26 20 6z m3101 -96 c5 0 9 5 9 10 0 6 7 10 16 10 12 0 15 -6 10 -26 -5 -19 -2
-30 11 -39 25 -19 8 -31 -23 -16 -14 6 -30 9 -35 6 -5 -4 -9 1 -9 10 0 8 -7
18 -15 21 -23 9 -28 41 -8 61 17 18 18 18 27 -9 5 -15 13 -28 17 -28z m-204 4
c-3 -3 -12 -4 -19 -1 -8 3 -5 6 6 6 11 1 17 -2 13 -5z m343 -39 c0 -8 -4 -15
-10 -15 -5 0 -7 7 -4 15 4 8 8 15 10 15 2 0 4 -7 4 -15z m-2979 -76 c-5 -13
-10 -19 -10 -12 -1 15 10 45 15 40 3 -2 0 -15 -5 -28z m2767 -26 c-20 -5 -24
-19 -7 -25 7 -2 9 -13 5 -25 -8 -24 -36 -21 -36 3 0 8 -4 14 -10 14 -5 0 -7 6
-4 14 6 15 26 24 54 24 10 0 9 -2 -2 -5z m-628 -228 c0 -8 -2 -15 -4 -15 -2 0
-6 7 -10 15 -3 8 -1 15 4 15 6 0 10 -7 10 -15z m-73 -77 c-3 -8 -6 -5 -6 6 -1
11 2 17 5 13 3 -3 4 -12 1 -19z m-1767 -24 c0 -2 -7 -4 -15 -4 -8 0 -15 4 -15
10 0 5 7 7 15 4 8 -4 15 -8 15 -10z m-10 -94 c0 -13 -28 -25 -38 -16 -3 4 0
11 8 16 20 13 30 12 30 0z m190 -5 c0 -8 -4 -15 -10 -15 -5 0 -10 7 -10 15 0
8 5 15 10 15 6 0 10 -7 10 -15z m-270 -19 c0 -7 -9 -16 -21 -19 -21 -6 -21 -5
-3 13 23 23 24 23 24 6z m176 -71 c9 -35 1 -39 -35 -20 -35 17 -40 31 -13 38
35 9 42 7 48 -18z m864 -105 c0 -5 -5 -10 -11 -10 -5 0 -7 5 -4 10 3 6 8 10
11 10 2 0 4 -4 4 -10z"/>
<path d="M10395 8988 c-66 -17 -121 -32 -123 -33 -2 -2 41 -168 95 -369 70
-261 102 -366 112 -366 27 0 223 60 264 81 180 92 248 271 178 471 -41 119
-116 193 -230 228 -87 27 -155 24 -296 -12z"/>
<path d="M7293 8180 c-109 -39 -184 -112 -224 -219 -59 -159 -19 -331 105
-457 119 -119 286 -145 439 -67 100 50 161 131 193 254 49 193 -73 424 -259
489 -72 26 -182 25 -254 0z"/>
<path d="M3095 7070 c-60 -17 -131 -36 -157 -42 -28 -7 -48 -17 -48 -25 0 -15
60 -236 66 -242 6 -7 287 71 325 90 79 39 105 101 75 174 -32 76 -103 88 -261
45z"/>
<path d="M3201 6525 c-91 -25 -166 -47 -169 -49 -4 -4 64 -255 71 -262 3 -3
85 17 183 43 206 55 261 83 282 147 15 47 1 104 -35 138 -20 19 -37 23 -96 25
-59 2 -101 -5 -236 -42z"/>
<path d="M4705 10765 c-176 -46 -330 -89 -342 -95 -14 -6 -23 -18 -23 -32 0
-45 353 -1373 370 -1391 16 -18 22 -17 150 17 74 19 141 42 149 50 16 17 19 3
-87 409 -22 81 -39 147 -38 147 1 0 31 9 68 19 l67 19 207 -236 c114 -131 212
-240 219 -244 14 -9 299 65 320 82 8 7 15 19 15 26 0 8 -96 118 -214 244
l-214 231 64 64 c110 109 157 246 134 385 -26 152 -123 283 -258 348 -66 31
-84 36 -170 38 -95 4 -105 2 -417 -81z m450 -254 c17 -9 40 -37 53 -61 40 -77
20 -161 -49 -211 -24 -18 -336 -105 -345 -97 -5 5 -76 275 -78 297 -1 10 47
27 164 57 171 45 199 47 255 15z"/>
<path d="M3856 10541 c-83 -21 -143 -42 -149 -52 -7 -11 23 -138 109 -465 78
-297 118 -466 117 -499 0 -63 -30 -122 -80 -164 -40 -33 -144 -71 -195 -71
-87 0 -171 48 -207 119 -15 28 -251 900 -251 925 0 3 -8 10 -19 15 -13 8 -53
1 -152 -25 -142 -37 -159 -46 -159 -75 0 -11 54 -225 120 -477 79 -300 131
-479 151 -521 20 -39 57 -90 98 -131 231 -235 627 -227 872 19 124 124 175
251 166 416 -4 73 -26 171 -121 530 -64 242 -119 448 -122 458 -11 35 -36 35
-178 -2z"/>
<path d="M2152 10095 c-233 -61 -430 -119 -438 -127 -14 -14 4 -89 167 -712
140 -533 187 -700 201 -707 23 -12 864 206 891 231 18 17 18 21 -15 145 -21
78 -40 133 -50 139 -17 10 -35 6 -440 -100 -81 -21 -149 -36 -152 -33 -5 5
-76 263 -73 265 1 0 101 27 222 58 121 32 228 60 238 62 36 11 36 36 3 164
-20 75 -39 128 -49 134 -19 12 -48 6 -309 -62 l-186 -50 -32 120 c-17 66 -28
124 -23 128 4 4 132 40 283 79 151 40 281 78 289 86 13 13 11 31 -18 142 -30
120 -48 155 -75 152 -6 -1 -201 -52 -434 -114z"/>
<path d="M7376 5933 c-11 -11 -6 -23 9 -23 8 0 15 4 15 9 0 13 -16 22 -24 14z"/>
<path d="M8450 5703 c0 -5 -15 -9 -33 -10 -27 -2 -66 -11 -164 -39 -18 -5 -16
-35 3 -62 8 -12 12 -22 7 -22 -14 1 -43 27 -43 38 0 19 -40 24 -91 12 -51 -13
-55 -18 -40 -66 10 -34 36 -131 51 -191 7 -26 17 -44 30 -48 10 -3 20 -16 22
-28 2 -17 9 -21 29 -19 17 2 29 -3 33 -13 3 -9 11 -13 17 -10 17 11 39 -26 26
-46 -17 -28 -2 -51 29 -43 25 6 27 5 21 -17 -5 -18 0 -29 20 -46 14 -13 30
-23 35 -23 14 0 9 37 -7 50 -16 13 -16 70 0 70 6 0 -2 11 -16 24 -15 13 -30
36 -33 53 -5 22 -19 36 -61 59 -33 17 -55 36 -55 46 0 21 39 12 48 -11 8 -22
44 -50 57 -44 22 8 65 -16 65 -36 0 -11 7 -24 16 -29 9 -5 17 -22 19 -38 3
-38 21 -81 40 -101 16 -16 16 -33 0 -36 -5 -1 -13 13 -17 31 -11 41 -33 43
-25 2 9 -41 0 -59 -24 -53 -14 4 -20 1 -18 -8 7 -33 -12 -67 -47 -85 -20 -11
-44 -23 -55 -29 -24 -13 -28 -32 -13 -80 6 -22 22 -78 34 -125 12 -47 28 -107
36 -135 8 -27 27 -102 44 -165 37 -140 73 -274 76 -278 3 -5 128 26 374 94
164 45 250 67 290 76 25 5 50 15 55 21 6 7 26 12 45 13 19 0 69 10 110 22 41
12 111 32 155 43 44 11 81 21 82 22 2 3 -22 102 -47 192 -13 44 -29 100 -35
125 -7 25 -18 44 -24 42 -15 -3 -179 -46 -256 -67 -33 -9 -103 -28 -155 -41
-86 -23 -220 -59 -262 -71 -18 -5 -18 -4 -78 227 -17 69 -38 146 -46 171 -8
25 -16 54 -19 65 -5 25 -37 147 -65 249 -12 44 -26 98 -32 120 -5 22 -15 60
-22 85 -8 25 -22 73 -31 108 -14 47 -23 62 -37 62 -10 0 -18 -3 -18 -7z m-267
-315 c22 -20 16 -23 -14 -8 -10 6 -19 21 -18 33 0 15 2 17 6 7 4 -8 15 -23 26
-32z m197 32 c0 -5 -2 -10 -4 -10 -3 0 -8 5 -11 10 -3 6 -1 10 4 10 6 0 11 -4
11 -10z m160 -60 c0 -11 -2 -20 -4 -20 -2 0 -6 9 -9 20 -3 11 -1 20 4 20 5 0
9 -9 9 -20z m-35 -210 c3 -5 -1 -10 -9 -10 -9 0 -16 5 -16 10 0 6 4 10 9 10 6
0 13 -4 16 -10z m65 -630 c0 -5 -4 -10 -10 -10 -5 0 -10 5 -10 10 0 6 5 10 10
10 6 0 10 -4 10 -10z m360 -84 c0 -15 -14 -35 -21 -30 -15 9 -10 34 6 34 8 0
15 -2 15 -4z m-175 -53 c28 -14 34 -22 30 -40 -3 -12 0 -24 8 -26 7 -3 4 -6
-6 -6 -11 -1 -21 8 -24 19 -3 11 -24 31 -47 45 -33 20 -37 25 -19 25 12 0 38
-8 58 -17z m405 -9 c0 -14 -4 -23 -10 -19 -5 3 -10 15 -10 26 0 10 5 19 10 19
6 0 10 -12 10 -26z m-160 -14 c0 -6 -44 -30 -55 -30 -11 0 -4 30 11 45 12 12
19 13 30 4 8 -6 14 -15 14 -19z m-336 1 c3 -5 -1 -12 -10 -15 -22 -9 -24 -8
-24 9 0 16 25 21 34 6z m423 -27 c-3 -3 -12 -4 -19 -1 -8 3 -5 6 6 6 11 1 17
-2 13 -5z"/>
<path d="M11030 5439 c-14 -6 -45 -15 -70 -20 -25 -5 -76 -18 -115 -29 -38
-11 -92 -25 -120 -31 -59 -14 -66 -21 -54 -63 14 -44 47 -166 74 -271 25 -95
35 -132 84 -315 56 -209 49 -192 79 -185 32 7 102 -15 115 -37 22 -35 -26
-109 -80 -123 -28 -7 -76 17 -110 53 -17 18 -26 23 -30 14 -2 -6 -8 -10 -13
-7 -4 2 -34 -2 -66 -11 -167 -44 -293 -77 -329 -85 -22 -6 -45 -17 -52 -25
-13 -18 -80 -36 -104 -28 -9 2 -52 -5 -95 -17 -101 -27 -178 -47 -232 -61 -41
-9 -43 -12 -37 -36 9 -36 11 -37 30 -18 23 23 27 20 20 -13 -5 -22 -2 -32 11
-39 9 -5 14 -14 10 -21 -5 -7 -14 -6 -32 5 -13 9 -27 14 -30 11 -9 -9 -43 30
-50 58 -7 30 -4 29 -79 9 -33 -8 -112 -29 -175 -46 -63 -16 -128 -34 -145 -38
-16 -4 -64 -17 -105 -28 -41 -11 -111 -30 -155 -42 -44 -13 -99 -26 -123 -31
-24 -5 -47 -11 -52 -14 -5 -3 -42 -14 -82 -25 -40 -10 -100 -26 -133 -35 -33
-9 -109 -29 -170 -45 -60 -16 -136 -36 -167 -44 -143 -39 -181 -49 -303 -81
-131 -34 -164 -43 -310 -85 -44 -12 -96 -26 -115 -30 -19 -4 -71 -18 -115 -30
-44 -12 -102 -28 -130 -35 -56 -15 -221 -59 -276 -75 -25 -7 -36 -16 -35 -28
1 -13 -7 -17 -29 -17 -27 0 -30 -3 -32 -33 -2 -44 31 -66 85 -57 32 5 41 3 46
-11 5 -13 10 -14 18 -6 11 11 38 6 38 -8 0 -5 -9 -12 -21 -15 -14 -5 -19 -14
-17 -28 4 -25 -19 -49 -72 -74 -20 -10 -49 -33 -63 -52 -27 -34 -27 -34 -27
-8 0 14 -5 27 -12 29 -7 3 -9 14 -4 31 6 24 8 26 21 13 17 -16 55 -10 55 9 0
7 -7 15 -15 19 -9 3 -15 18 -15 36 0 32 -17 70 -36 82 -7 4 -15 24 -18 43 -7
35 -8 36 -44 29 -48 -8 -59 -19 -38 -39 22 -22 20 -42 -4 -55 -18 -10 -19 -7
-17 27 2 37 1 38 -31 36 -18 0 -35 -3 -38 -6 -2 -2 -5 -25 -6 -51 -2 -36 2
-50 15 -57 9 -6 17 -15 17 -21 0 -7 -4 -7 -13 0 -10 8 -16 6 -26 -9 -7 -12
-10 -23 -7 -26 3 -3 -4 -15 -16 -25 -31 -27 -82 -21 -86 11 -5 32 5 66 24 85
19 20 9 39 -18 30 -12 -4 -24 0 -31 10 -11 15 -17 15 -52 3 -22 -8 -57 -17
-77 -21 -21 -4 -38 -10 -38 -14 0 -4 -14 -8 -30 -9 -17 -1 -63 -11 -103 -23
-81 -23 -128 -36 -302 -81 -66 -18 -125 -37 -130 -44 -6 -7 -27 -17 -47 -23
-44 -12 -73 -38 -81 -73 -7 -29 9 -89 24 -89 6 0 9 -10 8 -22 -5 -55 2 -89 21
-105 22 -19 26 -33 9 -33 -6 0 -17 -7 -25 -15 -14 -13 -17 -13 -31 0 -8 9 -13
25 -10 35 6 22 -12 90 -24 90 -4 0 -10 18 -14 40 -4 22 -11 42 -16 46 -5 3 -7
16 -4 30 3 13 7 36 10 50 6 26 5 26 -32 20 -21 -4 -58 -13 -83 -20 -25 -8 -74
-22 -110 -32 -38 -10 -74 -27 -86 -41 -21 -23 -41 -32 -29 -14 11 19 -14 21
-71 6 -64 -16 -69 -19 -60 -34 4 -6 24 -5 57 5 28 9 54 13 57 10 3 -3 -2 -6
-11 -6 -17 0 -25 -35 -9 -42 4 -1 17 -16 30 -32 21 -27 21 -30 6 -47 -9 -10
-14 -25 -11 -34 4 -8 2 -15 -2 -15 -5 0 -16 -3 -25 -6 -12 -5 -16 1 -16 24 0
21 -8 35 -25 46 -14 9 -25 13 -25 8 0 -5 14 -63 31 -128 17 -65 33 -129 36
-142 7 -30 14 -33 54 -21 19 5 41 12 49 14 8 2 51 13 95 25 44 11 140 37 214
56 73 19 137 36 141 39 3 2 19 6 34 9 38 7 127 35 148 47 10 5 46 13 80 19 35
5 104 21 153 35 50 14 106 30 125 34 19 5 71 19 115 31 44 12 101 26 128 32
27 6 47 16 47 24 0 9 10 11 33 7 18 -2 48 2 67 9 l35 15 -42 6 c-38 6 -43 10
-43 33 0 37 19 49 73 49 32 -1 47 3 47 12 0 16 5 16 31 1 17 -11 22 -10 35 6
14 19 14 19 14 -2 0 -15 12 -28 40 -42 23 -11 44 -19 49 -16 7 5 98 31 216 61
28 8 86 23 130 35 44 12 103 28 130 35 232 60 287 75 294 79 4 3 18 7 32 9 22
5 150 38 279 74 30 9 66 18 80 20 14 3 66 18 115 33 50 16 118 34 153 41 34 6
65 16 68 20 3 5 20 9 37 9 18 0 45 7 61 15 15 8 38 15 50 15 32 0 38 10 21 36
-18 27 -11 49 27 86 33 32 54 35 86 12 22 -15 47 -60 44 -76 -3 -12 11 -10 96
13 42 11 127 33 187 49 61 16 121 33 135 38 14 5 28 10 33 10 31 2 69 16 79
31 17 24 44 32 70 22 22 -8 64 0 198 38 92 26 330 90 385 103 22 5 81 21 130
35 50 13 97 26 105 28 55 12 201 55 217 63 11 6 28 11 39 10 10 0 46 7 79 16
33 10 92 25 130 36 39 10 106 28 150 40 44 12 114 30 155 41 135 35 220 62
220 71 0 4 -12 52 -26 106 -55 201 -76 281 -109 407 -19 72 -44 162 -55 200
-11 39 -25 90 -30 115 -5 25 -19 77 -30 115 -11 39 -25 90 -30 115 -6 25 -17
65 -25 90 -8 25 -19 64 -25 88 -12 45 -12 46 -50 31z m-1009 -1352 c-10 -9
-11 -8 -5 6 3 10 9 15 12 12 3 -3 0 -11 -7 -18z m-154 -39 c-3 -8 -6 -5 -6 6
-1 11 2 17 5 13 3 -3 4 -12 1 -19z m-27 -23 c0 -2 -10 -14 -22 -25 -18 -17
-20 -23 -9 -29 16 -10 8 -41 -11 -41 -7 0 -18 11 -25 25 -10 22 -9 27 10 37
12 6 26 17 30 24 7 13 27 20 27 9z m-110 -69 c0 -3 -4 -8 -10 -11 -5 -3 -10
-1 -10 4 0 6 5 11 10 11 6 0 10 -2 10 -4z m-540 -186 c0 -5 -2 -10 -4 -10 -3
0 -8 5 -11 10 -3 6 -1 10 4 10 6 0 11 -4 11 -10z m-65 -70 c3 -5 1 -10 -4 -10
-6 0 -11 5 -11 10 0 6 2 10 4 10 3 0 8 -4 11 -10z m-1691 -216 c3 -9 6 -20 6
-25 0 -16 -36 -10 -54 10 -17 18 -17 19 1 24 33 9 41 7 47 -9z m-114 -44 c-13
-11 -25 -18 -28 -15 -8 8 19 35 36 35 11 0 9 -5 -8 -20z m1197 -32 c-3 -8 -6
-5 -6 6 -1 11 2 17 5 13 3 -3 4 -12 1 -19z m-987 2 c0 -5 -2 -10 -4 -10 -3 0
-8 5 -11 10 -3 6 -1 10 4 10 6 0 11 -4 11 -10z m-330 -20 c0 -5 -8 -10 -17
-10 -15 0 -16 2 -3 10 19 12 20 12 20 0z m1100 -15 c0 -8 -4 -15 -10 -15 -5 0
-7 7 -4 15 4 8 8 15 10 15 2 0 4 -7 4 -15z m-1270 -141 c0 -14 -3 -14 -15 -4
-8 7 -15 14 -15 16 0 2 7 4 15 4 8 0 15 -7 15 -16z m-460 -36 c0 -6 -7 -5 -15
2 -8 7 -15 17 -15 22 0 6 7 5 15 -2 8 -7 15 -17 15 -22z m210 -38 c12 -8 11
-10 -7 -10 -13 0 -23 5 -23 10 0 13 11 13 30 0z m565 -29 c-3 -6 -11 -11 -16
-11 -5 0 -4 6 3 14 14 16 24 13 13 -3z m-681 -27 c23 -9 20 -24 -4 -24 -11 0
-20 7 -20 15 0 17 2 18 24 9z m-1095 -141 c-9 -2 -21 -14 -27 -26 l-11 -22 0
22 c-1 22 12 32 39 31 12 0 11 -1 -1 -5z m506 -13 c3 -5 -1 -10 -10 -10 -9 0
-13 5 -10 10 3 6 8 10 10 10 2 0 7 -4 10 -10z m75 -150 c0 -31 -16 -41 -26
-15 -8 19 2 45 16 45 5 0 10 -13 10 -30z m-462 -130 c15 -1 15 -2 -1 -15 -22
-16 -47 -10 -47 12 0 10 6 13 16 9 9 -3 23 -6 32 -6z"/>
<path d="M7110 5360 c-36 -10 -101 -28 -145 -40 -44 -13 -93 -25 -110 -29 -33
-7 -36 -16 -50 -167 l-7 -71 31 -6 c41 -9 64 -52 51 -98 -15 -53 -24 -61 -68
-62 -45 -2 -44 0 -57 -110 -2 -21 -14 -102 -25 -180 -11 -78 -22 -155 -25
-172 -2 -16 -13 -100 -25 -185 -12 -85 -23 -166 -25 -180 -2 -14 -14 -95 -25
-180 -12 -85 -24 -172 -27 -194 -5 -38 -5 -39 23 -31 16 4 45 11 64 16 102 24
166 41 184 51 12 7 31 12 44 13 31 1 59 45 30 45 -8 1 -5 7 6 15 11 8 16 21
12 30 -3 9 0 18 9 21 8 3 17 14 20 25 4 10 17 22 30 25 21 5 25 14 32 67 4 34
6 67 5 73 -1 7 10 15 25 19 105 25 133 37 133 56 0 10 4 19 10 19 5 0 7 -7 4
-15 -4 -10 0 -15 12 -15 25 0 50 17 41 26 -4 4 -1 14 7 23 7 9 18 30 25 46 11
30 11 30 6 -7 -10 -64 33 -69 178 -22 44 15 48 19 43 40 -4 13 -2 24 3 24 5 0
13 9 16 21 12 36 15 15 4 -25 -12 -45 -10 -50 23 -37 21 8 28 5 44 -17 123
-165 152 -197 175 -196 13 0 87 18 164 39 77 20 157 41 179 46 85 21 85 17
-16 147 -51 64 -96 122 -100 127 -5 6 -22 28 -38 50 -16 22 -33 45 -38 50 -4
6 -21 28 -37 50 -17 22 -32 42 -35 45 -3 3 -31 38 -63 78 -32 39 -62 72 -67
72 -6 0 -10 6 -10 14 0 12 -182 256 -225 302 -5 7 -46 59 -90 118 -53 70 -88
108 -105 112 -52 12 -53 13 -46 45 5 25 0 39 -25 70 -35 45 -49 47 -149 19z
m162 -650 c7 23 7 23 4 -3 -2 -20 6 -41 28 -70 17 -23 48 -66 69 -95 l37 -52
-26 -10 c-14 -6 -31 -10 -39 -10 -7 0 -16 -11 -19 -25 -7 -28 -22 -32 -45 -11
-14 13 -26 12 -90 -5 -41 -11 -79 -23 -83 -26 -5 -3 -7 10 -4 29 3 18 13 96
21 173 9 77 18 151 20 165 2 14 4 36 4 50 1 20 11 10 58 -55 54 -74 58 -78 65
-55z m32 54 c24 -9 19 -19 -8 -19 -15 0 -22 5 -19 13 6 14 6 14 27 6z m92 -32
c29 -25 33 -43 17 -74 -22 -45 -80 -33 -68 15 4 14 2 34 -4 45 -11 20 -6 25
29 31 3 0 14 -8 26 -17z m291 -98 c4 -10 -1 -22 -11 -29 -19 -15 -12 -42 14
-50 26 -8 33 -34 15 -62 -12 -18 -21 -22 -43 -17 -55 12 -75 66 -30 78 17 4
19 8 9 19 -9 12 -8 18 4 30 8 9 15 23 15 31 0 21 19 20 27 0z m-80 -176 c-3
-8 -6 -5 -6 6 -1 11 2 17 5 13 3 -3 4 -12 1 -19z m-230 -50 c-3 -8 -6 -5 -6 6
-1 11 2 17 5 13 3 -3 4 -12 1 -19z m250 -24 c-3 -3 -12 -4 -19 -1 -8 3 -5 6 6
6 11 1 17 -2 13 -5z m-100 -10 c-3 -3 -12 -4 -19 -1 -8 3 -5 6 6 6 11 1 17 -2
13 -5z m156 -6 c15 -7 27 -16 27 -21 0 -6 -56 17 -69 29 -10 9 17 3 42 -8z
m-448 -8 c3 -5 1 -10 -4 -10 -6 0 -11 5 -11 10 0 6 2 10 4 10 3 0 8 -4 11 -10z
m119 -56 c3 -8 1 -14 -4 -14 -5 0 -12 -9 -15 -20 -3 -11 -11 -20 -16 -20 -6 0
-5 9 2 21 6 12 9 29 6 39 -6 22 18 16 27 -6z m-64 -98 c0 -2 -7 -9 -15 -16
-13 -11 -14 -10 -9 4 5 14 24 23 24 12z m-360 -396 c0 -5 -2 -10 -4 -10 -3 0
-8 5 -11 10 -3 6 -1 10 4 10 6 0 11 -4 11 -10z"/>
<path d="M3390 4975 c0 -16 9 -19 34 -9 25 9 19 24 -9 24 -16 0 -25 -6 -25
-15z"/>
<path d="M3592 4910 c-19 -20 -61 -27 -99 -15 -19 6 -23 2 -33 -33 -7 -29 -7
-47 1 -65 l11 -24 121 32 c90 23 123 36 125 48 2 12 -3 17 -17 17 -12 0 -21 4
-21 8 0 16 -37 52 -53 52 -9 0 -24 -9 -35 -20z"/>
<path d="M5455 4924 c-67 -9 -152 -28 -190 -41 -62 -22 -205 -95 -205 -104 0
-5 -5 -9 -10 -9 -21 0 -128 -102 -189 -181 -72 -93 -136 -268 -146 -404 -9
-113 34 -342 61 -331 8 3 21 3 29 0 13 -5 13 -9 0 -35 -14 -26 -14 -32 4 -67
22 -43 79 -121 120 -165 94 -100 317 -216 415 -217 19 0 19 1 1 20 -17 18 -17
20 -2 14 9 -3 17 -10 17 -15 0 -5 13 -15 30 -24 35 -18 195 -13 301 9 108 23
299 105 299 129 0 4 6 7 14 7 8 0 16 3 18 8 2 4 25 24 51 46 132 106 246 330
263 518 11 128 -23 313 -80 423 -106 208 -302 357 -541 412 -29 6 -225 12
-260 7z m153 -336 c17 -17 15 -25 -10 -32 -19 -5 -7 -14 67 -49 115 -56 172
-116 211 -223 19 -52 31 -73 41 -70 7 3 13 1 13 -3 0 -5 -6 -11 -13 -14 -8 -3
-12 -24 -10 -65 3 -108 -45 -232 -115 -293 -73 -63 -213 -107 -301 -94 -152
23 -272 126 -319 275 -30 97 -31 103 -21 186 11 83 49 171 96 222 61 65 176
112 273 112 33 0 41 3 36 15 -5 14 17 45 33 45 4 0 12 -5 19 -12z m-694 -94
c8 -3 12 -12 9 -20 -3 -9 1 -14 11 -14 40 0 20 -55 -26 -73 -13 -4 -15 -15
-11 -45 6 -41 -4 -56 -31 -46 -39 15 -40 124 0 124 12 0 15 7 11 27 -8 45 3
60 37 47z m-64 -24 c0 -5 -7 -10 -15 -10 -8 0 -15 5 -15 10 0 6 7 10 15 10 8
0 15 -4 15 -10z m1131 -278 c-7 -2 -18 1 -23 6 -8 8 -4 9 13 5 13 -4 18 -8 10
-11z m-314 -592 c14 -11 21 -20 15 -20 -12 0 -60 39 -49 40 5 0 20 -9 34 -20z"/>
<path d="M3877 4500 c-38 -5 -72 -11 -75 -14 -3 -4 4 -13 16 -22 16 -11 20
-22 16 -38 -4 -16 0 -25 11 -30 11 -4 15 -12 11 -23 -8 -19 12 -123 23 -123 4
0 13 -11 19 -25 6 -13 23 -27 37 -31 27 -7 29 -12 16 -33 -7 -10 -17 -5 -45
25 -20 21 -36 44 -36 50 0 7 -4 14 -9 16 -5 2 -18 32 -29 68 -16 51 -24 65
-39 63 -10 -1 -30 3 -46 9 -22 8 -25 13 -16 24 6 8 8 14 4 14 -5 0 0 9 9 19
28 31 3 33 -76 5 -98 -35 -138 -57 -219 -115 -123 -90 -220 -224 -271 -375
-35 -106 -49 -241 -26 -258 25 -19 29 -44 8 -59 -18 -12 -19 -19 -10 -65 38
-203 145 -386 289 -496 34 -25 64 -46 67 -46 3 0 20 -10 36 -22 23 -16 35 -19
47 -11 12 8 18 5 26 -11 11 -22 92 -51 171 -62 39 -5 44 -4 44 15 0 11 5 23
11 27 9 5 10 -1 5 -20 -6 -24 -4 -27 16 -26 13 1 28 1 33 0 36 -7 152 4 216
20 183 47 316 126 426 252 55 63 148 232 139 253 -2 6 -78 38 -167 70 -90 32
-169 62 -175 67 -13 10 -24 -2 -49 -52 -36 -71 -105 -140 -179 -177 -66 -34
-77 -37 -161 -37 -99 0 -123 8 -208 73 -118 89 -184 272 -152 423 15 74 33
113 78 173 40 52 148 105 229 113 32 2 58 8 58 12 0 12 43 20 68 13 12 -3 22
-12 22 -19 0 -8 7 -14 16 -14 8 0 12 -4 9 -10 -3 -5 0 -10 7 -10 7 0 37 -16
67 -36 29 -20 56 -32 61 -27 4 4 53 69 109 143 55 74 106 140 111 147 6 7 10
16 10 22 0 32 -174 127 -284 155 -75 20 -183 26 -269 16z m-83 -336 c9 -23 7
-44 -3 -44 -5 0 -14 14 -20 30 -8 24 -7 30 3 30 8 0 17 -7 20 -16z m-116 -46
c16 -16 15 -28 -3 -28 -17 0 -20 -16 -5 -25 15 -9 12 -18 -15 -37 -46 -34 -80
6 -40 46 14 14 25 32 25 41 0 18 21 20 38 3z m457 -28 c-3 -5 -12 -7 -20 -3
-21 7 -19 13 6 13 11 0 18 -4 14 -10z m-671 -95 c-4 -8 -10 -15 -15 -15 -4 0
-6 7 -3 15 4 8 10 15 15 15 4 0 6 -7 3 -15z m-237 -67 c-3 -8 -6 -5 -6 6 -1
11 2 17 5 13 3 -3 4 -12 1 -19z m-37 -198 c0 -5 -4 -10 -10 -10 -5 0 -10 5
-10 10 0 6 5 10 10 10 6 0 10 -4 10 -10z m430 -460 c0 -5 -2 -10 -4 -10 -3 0
-8 5 -11 10 -3 6 -1 10 4 10 6 0 11 -4 11 -10z m632 -90 c-2 -16 -6 -30 -8
-30 -2 0 -4 14 -4 30 0 17 4 30 8 30 5 0 7 -13 4 -30z"/>
<path d="M7100 3020 c-12 -8 -11 -10 8 -10 12 0 22 5 22 10 0 13 -11 13 -30 0z"/>
<path d="M5140 2790 c0 -5 -7 -10 -15 -10 -25 0 -23 -107 2 -127 9 -7 13 -18
10 -26 -7 -19 13 -98 29 -114 17 -17 63 -17 70 0 4 12 -18 110 -56 250 -6 21
-17 37 -25 37 -8 0 -15 -4 -15 -10z"/>
<path d="M1366 2173 c-11 -11 -6 -23 9 -23 8 0 15 4 15 9 0 13 -16 22 -24 14z"/>
</g>
</svg>
