<svg xmlns="http://www.w3.org/2000/svg" viewBox="0 0 221.54 269.28"><defs><style>.cls-1{fill-rule:evenodd;}.cls-2{fill:#fff;}</style></defs><g id="Layer_2" data-name="Layer 2"><g id="Layer_1-2" data-name="Layer 1"><path id="Path_114-24" data-name="Path 114-24" class="cls-1" d="M31.69,31A112.36,112.36,0,0,1,190.55,189.85l-79.43,79.43L31.69,189.85A115.38,115.38,0,0,1,31.69,31Z"/><path class="cls-2" d="M109.75,32.47a81.62,81.62,0,1,1-81.63,81.62A81.71,81.71,0,0,1,109.75,32.47Zm0,11.39A70.23,70.23,0,1,0,180,114.09,70.15,70.15,0,0,0,109.75,43.86Zm0,11.39a5.69,5.69,0,0,1,5.69,5.69v53.15a5.7,5.7,0,0,1-5.69,5.7H60.39a5.7,5.7,0,0,1,0-11.39h43.66V60.94A5.7,5.7,0,0,1,109.75,55.25Z"/></g></g></svg>