<svg xmlns="http://www.w3.org/2000/svg" width="222.1229" height="269.7681" viewBox="0 0 222.1229 269.7681"><g id="Layer_2" data-name="Layer 2"><g id="Screen_Shot_2020-12-17_at_20.31.02_Image" data-name="Screen Shot 2020-12-17 at 20.31.02 Image"><path d="M222.1229,107.7856v10.16a16.8086,16.8086,0,0,0-.6962,2.7807c-2.229,28.2965-13.4793,52.38-33.5439,72.4192q-36.6651,36.618-73.236,73.3305c-1.0751,1.0763-2.21,2.0927-3.4818,3.2923-1.2772-1.22-2.3994-2.248-3.4739-3.3239-24.5122-24.5427-49.1366-48.9748-73.4944-73.67C9.365,167.5985-2.4311,137.2107.4169,101.8664,5.6934,36.3817,56.8577-2.34,114.4818.11a111.9171,111.9171,0,0,1,104.345,87.3239C220.3292,94.1269,221.0436,100.9973,222.1229,107.7856Z"/><path d="M142.7547,61.811,111.0615,93.5042,79.3682,61.811,56.3065,84.8727,88,116.5659,56.3065,148.2592l23.0617,23.0616,31.6933-31.6932,31.6932,31.6932,23.0617-23.0616-31.6933-31.6933,31.6933-31.6932Z" fill="#fff"/></g></g></svg>