<svg xmlns="http://www.w3.org/2000/svg" width="222.1229" height="270.7918" viewBox="0 0 222.1229 270.7918"><g id="Layer_2" data-name="Layer 2"><g id="Screen_Shot_2020-12-17_at_20.31.02_Image" data-name="Screen Shot 2020-12-17 at 20.31.02 Image"><path d="M111.8663,270.7918c-1.73-1.6488-2.7611-2.5888-3.7453-3.5755Q70.8292,229.83,33.5491,192.4308C-9.6966,149.005-11.4767,77.9149,30.2029,33.0015,48.62,13.1557,72.3357,2.7245,99.193.4341c57.6059-4.9127,108.37,32.324,120.18,88.81,8.18,39.1265-1.93,73.8545-29.7956,102.6608-24.67,25.5034-50.0314,50.3372-75.0674,75.4866A37.75,37.75,0,0,0,111.8663,270.7918Z" fill="#3b1703"/><path d="M142.832,62.3642l-31.77,31.7705-31.7706-31.77L56.173,85.4821l31.7705,31.7705-31.77,31.7705L79.2909,172.141l31.7706-31.77L142.832,172.141,165.95,149.0231l-31.7706-31.77,31.7706-31.77Z" fill="#fff"/></g></g></svg>